<?xml version="1.0" encoding="UTF-8" standalone="no"?>
<!DOCTYPE svg PUBLIC "-//W3C//DTD SVG 1.1//EN"
 "http://www.w3.org/Graphics/SVG/1.1/DTD/svg11.dtd">
<!-- Generated by graphviz version 2.38.0 (20140413.2041)
 -->
<!-- Title: snakemake_dag Pages: 1 -->
<svg width="334pt" height="404pt"
 viewBox="0.00 0.00 333.50 404.00" xmlns="http://www.w3.org/2000/svg" xmlns:xlink="http://www.w3.org/1999/xlink">
<g id="graph0" class="graph" transform="scale(1 1) rotate(0) translate(4 400)">
<title>snakemake_dag</title>
<polygon fill="white" stroke="none" points="-4,4 -4,-400 329.5,-400 329.5,4 -4,4"/>
<!-- 0 -->
<g id="node1" class="node"><title>0</title>
<path fill="none" stroke="#d85656" stroke-width="2" d="M148.5,-36C148.5,-36 118.5,-36 118.5,-36 112.5,-36 106.5,-30 106.5,-24 106.5,-24 106.5,-12 106.5,-12 106.5,-6 112.5,-0 118.5,-0 118.5,-0 148.5,-0 148.5,-0 154.5,-0 160.5,-6 160.5,-12 160.5,-12 160.5,-24 160.5,-24 160.5,-30 154.5,-36 148.5,-36"/>
<text text-anchor="middle" x="133.5" y="-15.5" font-family="sans" font-size="10.00">all</text>
</g>
<!-- 1 -->
<g id="node2" class="node"><title>1</title>
<path fill="none" stroke="#5692d8" stroke-width="2" d="M205,-108C205,-108 62,-108 62,-108 56,-108 50,-102 50,-96 50,-96 50,-84 50,-84 50,-78 56,-72 62,-72 62,-72 205,-72 205,-72 211,-72 217,-78 217,-84 217,-84 217,-96 217,-96 217,-102 211,-108 205,-108"/>
<text text-anchor="middle" x="133.5" y="-87.5" font-family="sans" font-size="10.00">annotate_splice_site_junctions</text>
</g>
<!-- 1&#45;&gt;0 -->
<g id="edge1" class="edge"><title>1&#45;&gt;0</title>
<path fill="none" stroke="grey" stroke-width="2" d="M133.5,-71.6966C133.5,-63.9827 133.5,-54.7125 133.5,-46.1124"/>
<polygon fill="grey" stroke="grey" stroke-width="2" points="137,-46.1043 133.5,-36.1043 130,-46.1044 137,-46.1043"/>
</g>
<!-- 2 -->
<g id="node3" class="node"><title>2</title>
<path fill="none" stroke="#56c9d8" stroke-width="2" d="M97,-180C97,-180 12,-180 12,-180 6,-180 0,-174 0,-168 0,-168 0,-156 0,-156 0,-150 6,-144 12,-144 12,-144 97,-144 97,-144 103,-144 109,-150 109,-156 109,-156 109,-168 109,-168 109,-174 103,-180 97,-180"/>
<text text-anchor="middle" x="54.5" y="-159.5" font-family="sans" font-size="10.00">download_genome</text>
</g>
<!-- 2&#45;&gt;1 -->
<g id="edge2" class="edge"><title>2&#45;&gt;1</title>
<path fill="none" stroke="grey" stroke-width="2" d="M74.0281,-143.697C83.8818,-134.965 95.9857,-124.24 106.696,-114.75"/>
<polygon fill="grey" stroke="grey" stroke-width="2" points="109.033,-117.356 114.197,-108.104 104.391,-112.117 109.033,-117.356"/>
</g>
<!-- 3 -->
<g id="node4" class="node"><title>3</title>
<path fill="none" stroke="#56d873" stroke-width="2" d="M288,-180C288,-180 139,-180 139,-180 133,-180 127,-174 127,-168 127,-168 127,-156 127,-156 127,-150 133,-144 139,-144 139,-144 288,-144 288,-144 294,-144 300,-150 300,-156 300,-156 300,-168 300,-168 300,-174 294,-180 288,-180"/>
<text text-anchor="middle" x="213.5" y="-159.5" font-family="sans" font-size="10.00">aggregate_splice_site_junctions</text>
</g>
<!-- 3&#45;&gt;1 -->
<g id="edge3" class="edge"><title>3&#45;&gt;1</title>
<path fill="none" stroke="grey" stroke-width="2" d="M193.725,-143.697C183.746,-134.965 171.489,-124.24 160.643,-114.75"/>
<polygon fill="grey" stroke="grey" stroke-width="2" points="162.878,-112.055 153.048,-108.104 158.269,-117.323 162.878,-112.055"/>
</g>
<!-- 4 -->
<g id="node5" class="node"><title>4</title>
<path fill="none" stroke="#70d856" stroke-width="2" d="M210.5,-252C210.5,-252 142.5,-252 142.5,-252 136.5,-252 130.5,-246 130.5,-240 130.5,-240 130.5,-228 130.5,-228 130.5,-222 136.5,-216 142.5,-216 142.5,-216 210.5,-216 210.5,-216 216.5,-216 222.5,-222 222.5,-228 222.5,-228 222.5,-240 222.5,-240 222.5,-246 216.5,-252 210.5,-252"/>
<text text-anchor="middle" x="176.5" y="-231.5" font-family="sans" font-size="10.00">analyze_library</text>
</g>
<!-- 4&#45;&gt;3 -->
<g id="edge4" class="edge"><title>4&#45;&gt;3</title>
<path fill="none" stroke="grey" stroke-width="2" d="M185.646,-215.697C189.903,-207.644 195.056,-197.894 199.766,-188.982"/>
<polygon fill="grey" stroke="grey" stroke-width="2" points="202.88,-190.581 204.459,-180.104 196.692,-187.31 202.88,-190.581"/>
</g>
<!-- 5 -->
<g id="node6" class="node"><title>5</title>
<path fill="none" stroke="#afd856" stroke-width="2" d="M313.5,-324C313.5,-324 187.5,-324 187.5,-324 181.5,-324 175.5,-318 175.5,-312 175.5,-312 175.5,-300 175.5,-300 175.5,-294 181.5,-288 187.5,-288 187.5,-288 313.5,-288 313.5,-288 319.5,-288 325.5,-294 325.5,-300 325.5,-300 325.5,-312 325.5,-312 325.5,-318 319.5,-324 313.5,-324"/>
<text text-anchor="middle" x="250.5" y="-303.5" font-family="sans" font-size="10.00">count_splice_site_junctions</text>
</g>
<!-- 5&#45;&gt;3 -->
<g id="edge5" class="edge"><title>5&#45;&gt;3</title>
<path fill="none" stroke="grey" stroke-width="2" d="M247.446,-287.794C244.102,-269.761 238.299,-240.676 231.5,-216 229.114,-207.342 226.105,-198.027 223.234,-189.659"/>
<polygon fill="grey" stroke="grey" stroke-width="2" points="226.467,-188.303 219.85,-180.028 219.863,-190.623 226.467,-188.303"/>
</g>
<!-- 5&#45;&gt;4 -->
<g id="edge7" class="edge"><title>5&#45;&gt;4</title>
<path fill="none" stroke="grey" stroke-width="2" d="M232.208,-287.697C223.067,-279.05 211.86,-268.449 201.9,-259.027"/>
<polygon fill="grey" stroke="grey" stroke-width="2" points="204.252,-256.434 194.582,-252.104 199.441,-261.519 204.252,-256.434"/>
</g>
<!-- 6 -->
<g id="node7" class="node"><title>6</title>
<path fill="none" stroke="#56d8a9" stroke-width="2" d="M244.5,-396C244.5,-396 152.5,-396 152.5,-396 146.5,-396 140.5,-390 140.5,-384 140.5,-384 140.5,-372 140.5,-372 140.5,-366 146.5,-360 152.5,-360 152.5,-360 244.5,-360 244.5,-360 250.5,-360 256.5,-366 256.5,-372 256.5,-372 256.5,-384 256.5,-384 256.5,-390 250.5,-396 244.5,-396"/>
<text text-anchor="middle" x="198.5" y="-381" font-family="sans" font-size="10.00">index_bam</text>
<text text-anchor="middle" x="198.5" y="-370" font-family="sans" font-size="10.00">sample: miniPCAWG</text>
</g>
<!-- 6&#45;&gt;4 -->
<g id="edge6" class="edge"><title>6&#45;&gt;4</title>
<path fill="none" stroke="grey" stroke-width="2" d="M184.936,-359.972C177.942,-350.09 170.133,-337.047 166.5,-324 160.816,-303.59 164.016,-279.694 168.253,-261.804"/>
<polygon fill="grey" stroke="grey" stroke-width="2" points="171.663,-262.597 170.808,-252.036 164.891,-260.825 171.663,-262.597"/>
</g>
<!-- 6&#45;&gt;5 -->
<g id="edge8" class="edge"><title>6&#45;&gt;5</title>
<path fill="none" stroke="grey" stroke-width="2" d="M211.354,-359.697C217.525,-351.389 225.037,-341.277 231.824,-332.141"/>
<polygon fill="grey" stroke="grey" stroke-width="2" points="234.64,-334.219 237.794,-324.104 229.021,-330.045 234.64,-334.219"/>
</g>
</g>
</svg>
